<?xml version="1.0" standalone="no"?>
<!DOCTYPE svg PUBLIC "-//W3C//DTD SVG 20010904//EN"
 "http://www.w3.org/TR/2001/REC-SVG-20010904/DTD/svg10.dtd">
<svg version="1.0" xmlns="http://www.w3.org/2000/svg"
 width="1413.000000pt" height="194.000000pt" viewBox="0 0 1413.000000 194.000000"
 preserveAspectRatio="xMidYMid meet">

<g transform="translate(0.000000,194.000000) scale(0.100000,-0.100000)"
fill="#000000" stroke="none">
<path d="M275 1650 c-87 -20 -166 -83 -186 -150 -27 -89 43 -148 184 -156 40
-2 756 -9 1592 -14 836 -6 2638 -20 4005 -30 1367 -11 2658 -20 2870 -21 219
0 376 -4 365 -9 -11 -4 -245 -24 -520 -44 -275 -20 -1074 -79 -1775 -131 -701
-52 -2182 -163 -3290 -245 -1421 -106 -2028 -155 -2060 -165 -101 -34 -169
-117 -156 -189 7 -36 47 -79 88 -95 55 -21 1672 -81 2993 -111 1808 -41 4170
-41 5945 0 998 23 1660 45 2710 91 500 21 535 26 608 79 77 56 99 146 48 199
-55 57 -88 59 -601 36 -2712 -120 -5554 -153 -8293 -98 -177 3 -320 8 -318 10
2 2 667 53 1477 114 6938 516 7095 528 7139 544 69 24 117 63 141 111 41 85 0
152 -103 173 -51 11 -989 19 -9298 81 -1455 10 -2845 21 -3090 23 -245 2 -458
1 -475 -3z"/>
</g>
</svg>
